<?xml version="1.0" encoding="utf-8"?>
<!-- Generator: Adobe Illustrator 26.0.1, SVG Export Plug-In . SVG Version: 6.00 Build 0)  -->
<svg version="1.1" id="Camada_1" xmlns="http://www.w3.org/2000/svg" xmlns:xlink="http://www.w3.org/1999/xlink" x="0px" y="0px"
	 viewBox="0 0 74 36" style="enable-background:new 0 0 74 36;" xml:space="preserve">
<style type="text/css">
	.st0{fill-rule:evenodd;clip-rule:evenodd;fill:#0E7B35;}
	.st1{fill:none;}
	.st2{fill-rule:evenodd;clip-rule:evenodd;fill:#FFFFFF;}
	.st3{fill:#FFFFFF;}
</style>
<rect class="st0" width="74" height="36"/>
<rect class="st1" width="74" height="36"/>
<g>
	<path class="st2" d="M27.4,17.6c0-0.1,0-0.4,0-0.4c0-0.1,0-0.2,0-0.4c-0.9,0-1.6,0.1-2.2,0.1c-0.5,0-1.2,0-2.2-0.1
		c0,0.2,0,0.3,0,0.4c0,0.1,0,0.3,0,0.4c0.4-0.1,1-0.1,1.4-0.1c0,0.9,0.1,1.6,0.1,2.1c0,0.9,0,1.8-0.1,2.7c0.4,0,0.6-0.1,0.8-0.1
		c0.1,0,0.4,0,0.8,0.1C26,21.2,26,20.1,26,18.9v-0.4c0-0.4,0-0.6,0-1.1C26.4,17.4,26.9,17.5,27.4,17.6 M29.8,22.3c0.2,0,0.4,0,0.4,0
		c0.1,0,0.2,0,0.4,0c0.2-0.5,0.4-1.1,0.5-1.5c0.4,0,0.7,0,0.9,0c0.3,0,0.6,0,0.9,0c0.1,0.5,0.4,1,0.4,1.5c0.4,0,0.6,0,0.8,0
		c0.2,0,0.4,0,0.8,0c-0.8-1.9-1.5-3.8-2.1-5.7c-0.1,0-0.3,0-0.4,0c-0.1,0-0.3,0-0.4,0C31.4,18.6,30.7,20.4,29.8,22.3z M31.5,20.1
		c0.2-0.5,0.4-1.1,0.6-1.7c0.3,0.6,0.4,1.1,0.6,1.7c-0.3,0-0.4,0-0.6,0C32,20.1,31.8,20.1,31.5,20.1z M36.8,19.3v-1.1
		c0-0.2,0-0.5,0-0.9c0.1,0,0.2,0,0.2,0c0.7,0,1.1,0.3,1.1,1S37.7,19.3,36.8,19.3L36.8,19.3z M39.8,21.9c-0.5-0.7-1-1.4-1.6-2.5
		c0.8-0.1,1.2-0.6,1.2-1.4c0-1-0.6-1.4-1.8-1.4c-0.6,0-1.1,0.1-1.6,0.1c-0.2,0-0.4,0-0.6,0c0.1,1.1,0.1,1.9,0.1,2.7v0.3
		c0,0.6,0,1.5-0.1,2.5c0.4,0,0.5-0.1,0.7-0.1s0.4,0,0.7,0.1c-0.1-0.5-0.1-1.1-0.1-1.5v-1.1c0.8,1.1,1.2,2,1.5,2.6
		c0.4,0,0.6-0.1,0.8-0.1c0.1,0,0.4,0,0.5,0 M39.7,22.3c0.9-1.9,1.6-3.7,2.2-5.7c0.1,0,0.3,0,0.4,0c0.1,0,0.3,0,0.4,0
		c0.6,1.9,1.3,3.7,2.1,5.7c-0.4,0-0.6,0-0.8,0c-0.3,0-0.5,0-0.8,0c-0.2-0.5-0.4-1.1-0.4-1.5c-0.3,0-0.6,0-0.9,0c-0.1,0-0.4,0-0.9,0
		c-0.1,0.5-0.4,1-0.5,1.5c-0.2,0-0.4,0-0.4,0C40,22.2,39.8,22.3,39.7,22.3z M41.2,20.1c0.3,0,0.4,0,0.6,0s0.4,0,0.6,0
		c-0.2-0.6-0.4-1.1-0.6-1.7C41.7,19,41.4,19.6,41.2,20.1z M45.3,16.8c0.1,2.4,0.1,3.7,0.1,4.2v0.6c0,1.1-0.1,1.6-0.8,1.6
		c-0.1,0-0.1,0-0.2,0l0.1,0.4c0.1,0,0.2,0,0.3,0c0.4,0,1-0.2,1.2-0.4c0.5-0.4,0.6-1.1,0.6-1.9c0-0.4,0-0.9,0-1.7
		c0-0.9,0-1.9,0.1-2.8c-0.4,0-0.6,0-0.8,0C45.9,16.8,45.7,16.8,45.3,16.8z M47.8,16.8c0.1,0.7,0.1,1.3,0.1,1.9v1c0,0.9,0,1.6,0.4,2
		c0.4,0.4,1.1,0.8,1.9,0.8s1.5-0.3,1.9-0.7c0.4-0.4,0.4-1.1,0.4-1.9c0-0.4,0-0.9,0-1.1c0-0.4,0-1.1,0.1-1.8c-0.2,0-0.4,0.1-0.4,0.1
		c-0.1,0-0.3,0-0.4-0.1c0.1,0.7,0.1,1.6,0.1,2.5c0,0.9,0,1.4-0.3,1.9c-0.2,0.4-0.6,0.6-1.1,0.6c-1.1,0-1.2-0.8-1.2-2.2
		c0-0.8,0-1.7,0.1-2.7c-0.4,0-0.6,0.1-0.7,0.1C48.4,16.8,48.1,16.8,47.8,16.8z"/>
	<path class="st2" d="M26,13.4c0.4,0.1,0.6,0.4,0.9,0.5c0.3,0.2,0.8,0.1,1.1,0c-0.3,0.2-0.5,0.4-0.6,0.4c-0.1,0.3-0.1,0.4-0.1,0.7
		c0,0.1-0.1,0.3-0.1,0.4c-0.1,0.2-0.1,0.4-0.1,0.4s0.1,0,0.1-0.1c0.1-0.1,0.2-0.1,0.3-0.3c0.1-0.1,0.2-0.1,0.3-0.1
		c0.4-0.1,0.8-0.3,0.9-0.4c0.1-0.2,0.1-0.4,0.2-0.5c0.2,0.4,0.4,0.7,0.7,0.8s0.6,0.2,0.9,0.5c0-0.4-0.1-0.5-0.1-0.6
		c0-0.1,0.1-0.3,0.1-0.4c0-0.1,0-0.3-0.1-0.4c-0.1-0.1-0.3-0.4-0.4-0.6c0.4,0.4,0.6,0.4,0.9,0.4c0.3-0.1,0.8-0.1,1.1-0.2
		c-1-0.3-0.4-0.3-0.9-0.8c-0.1-0.2-0.4-0.4-0.6-0.4c-0.3-0.1-0.6,0.1-0.9,0.1c0.4-0.6,0.8-1,0.6-1.3l-0.1-0.1
		c-0.2-0.3-0.4,0.9-0.6,1.3c-0.1-0.5-0.4-0.7-0.6-0.9c-0.4-0.1-0.7-0.3-1.1-0.4c0.1,0.1,0.1,0.3,0.1,0.4c0,0.1-0.1,0.2-0.1,0.4
		c0,0.1,0,0.3,0.1,0.4c0.1,0.1,0.2,0.4,0.4,0.6c-0.4-0.1-0.9-0.1-1.1-0.1C26.8,13,26.5,13.1,26,13.4"/>
	<path class="st2" d="M53.5,15.2h-0.2v0.4h0.2c0.1,0,0.2,0,0.3-0.1c0.1,0,0.1-0.1,0.1-0.1c0-0.1,0-0.1-0.1-0.2
		C53.7,15.2,53.6,15.2,53.5,15.2 M53.6,15.1c0.1,0,0.3,0,0.4,0.1c0.1,0.1,0.1,0.1,0.1,0.3c0,0.1,0,0.1-0.1,0.2
		c-0.1,0.1-0.1,0.1-0.2,0.1l0.3,0.5h-0.2l-0.4-0.5h-0.3v0.5H53v-1.1C53.1,15.1,53.6,15.1,53.6,15.1z M54.4,15.7c0,0.1,0,0.3-0.1,0.4
		c-0.1,0.1-0.1,0.2-0.2,0.3c-0.1,0.1-0.2,0.1-0.4,0.2c-0.1,0.1-0.2,0.1-0.4,0.1c-0.1,0-0.3,0-0.4-0.1c-0.1-0.1-0.2-0.1-0.3-0.2
		s-0.1-0.2-0.2-0.3c-0.1-0.1-0.1-0.2-0.1-0.4c0-0.1,0-0.3,0.1-0.4c0.1-0.1,0.1-0.2,0.2-0.4c0.1-0.1,0.2-0.1,0.3-0.2
		c0.1-0.1,0.2-0.1,0.4-0.1c0.1,0,0.3,0,0.4,0.1c0.1,0.1,0.2,0.1,0.3,0.2c0.1,0.1,0.1,0.2,0.2,0.3C54.4,15.4,54.4,15.6,54.4,15.7z
		 M53.5,14.7c0.1,0,0.3,0,0.4,0.1c0.1,0.1,0.3,0.1,0.4,0.2c0.1,0.1,0.2,0.2,0.2,0.4c0.1,0.1,0.1,0.3,0.1,0.4c0,0.1,0,0.3-0.1,0.4
		c-0.1,0.1-0.1,0.2-0.2,0.4c-0.1,0.1-0.2,0.2-0.4,0.2c-0.1,0.1-0.3,0.1-0.4,0.1c-0.1,0-0.3,0-0.4-0.1c-0.1-0.1-0.3-0.1-0.4-0.2
		c-0.1-0.1-0.2-0.2-0.2-0.4c-0.1-0.1-0.1-0.3-0.1-0.4c0-0.1,0-0.3,0.1-0.4c0.1-0.1,0.1-0.3,0.2-0.4c0.1-0.1,0.2-0.2,0.4-0.2
		C53.3,14.7,53.4,14.7,53.5,14.7z"/>
	<path class="st3" d="M28,22.4l0.1-0.9c0-0.2,0-0.5,0-0.9s0-0.7,0-1v-1.1c0-0.2,0-0.4-0.1-0.8c0-0.4-0.1-0.6-0.1-0.9
		c0.1,0,0.3,0,0.4,0s0.3,0,0.4,0h0.1c0.1,0,0.2,0,0.3,0c0.1,0,0.2,0,0.4,0l-0.1,0.9c0,0.2,0,0.6,0,1.1c0,0.5,0,0.9,0,1.1v1
		c0,0.1,0,0.4,0.1,0.8c0,0.4,0.1,0.6,0.1,0.9h-0.7L28,22.4z"/>
</g>
</svg>
